<?xml version="1.0" encoding="utf-8"?>
<!-- Svg Vector Icons : http://www.onlinewebfonts.com/icon -->
<!DOCTYPE svg PUBLIC "-//W3C//DTD SVG 1.1//EN" "http://www.w3.org/Graphics/SVG/1.1/DTD/svg11.dtd">
<svg version="1.1" xmlns="http://www.w3.org/2000/svg" xmlns:xlink="http://www.w3.org/1999/xlink" x="0px" y="0px" viewBox="0 0 1000 1000" enable-background="new 0 0 1000 1000" xml:space="preserve">
<metadata> Svg Vector Icons : http://www.onlinewebfonts.com/icon </metadata>
<g><g transform="translate(0.000000,511.000000) scale(0.100000,-0.100000)"><path d="M729,2860.3c-242.8-56.2-442.2-222.4-552.1-455l-66.5-143.1l-7.7-1786.7C95.1-1541.2,90-1479.8,284.2-1717.6c71.6-89.5,163.6-161,260.7-212.1l150.8-76.7h1413.5h1413.5l81.8,84.3l84.3,81.8v306.7v306.7l-84.3,81.8l-81.8,84.3l-1221.8,12.8l-1219.2,12.8L1074,429.5l-5.1,1462.1h3936.3h3936.3l-5.1-1462.1l-7.7-1464.6h-651.8h-651.8l-12.8,316.9l-12.8,314.4L6802.1-961c-439.6-309.3-800-564.9-800-572.5s360.4-263.3,800-570l797.5-557.2l12.8,314.4l12.8,314.4l843.5,12.8l843.5,12.8l145.7,71.6c166.1,81.8,309.3,227.5,388.5,398.7c53.7,117.6,53.7,132.9,53.7,1957.9v1840.3l-66.5,140.6c-84.4,178.9-227.5,322.1-406.4,406.4l-140.6,66.5l-4230.2,5.1C2646,2880.7,785.2,2873.1,729,2860.3z"/></g></g>
</svg>